<mxfile host="app.diagrams.net" agent="Mozilla/5.0 (Windows NT 10.0; Win64; x64) AppleWebKit/537.36 (KHTML, like Gecko) Chrome/134.0.0.0 Safari/537.36" version="26.2.9">
  <diagram name="Page-1" id="uJOQxZmcwVSOpPkB1xQA">
    <mxGraphModel dx="1215" dy="811" grid="1" gridSize="10" guides="1" tooltips="1" connect="1" arrows="1" fold="1" page="1" pageScale="1" pageWidth="827" pageHeight="1169" math="0" shadow="0">
      <root>
        <mxCell id="0" />
        <mxCell id="1" parent="0" />
        <mxCell id="aL5J_LAOaLg8pD272hid-1" value="base_classifier" style="rounded=0;whiteSpace=wrap;html=1;" vertex="1" parent="1">
          <mxGeometry x="280" y="60" width="120" height="60" as="geometry" />
        </mxCell>
        <mxCell id="aL5J_LAOaLg8pD272hid-3" value="X_train&lt;br&gt;y_train" style="shape=dataStorage;whiteSpace=wrap;html=1;fixedSize=1;" vertex="1" parent="1">
          <mxGeometry x="40" y="50" width="160" height="80" as="geometry" />
        </mxCell>
        <mxCell id="aL5J_LAOaLg8pD272hid-4" value="X_train_poisoned&lt;div&gt;y_train_poisoned&lt;/div&gt;" style="shape=dataStorage;whiteSpace=wrap;html=1;fixedSize=1;" vertex="1" parent="1">
          <mxGeometry x="40" y="150" width="160" height="80" as="geometry" />
        </mxCell>
        <mxCell id="aL5J_LAOaLg8pD272hid-6" value="backdoor_classifier" style="rounded=0;whiteSpace=wrap;html=1;" vertex="1" parent="1">
          <mxGeometry x="280" y="160" width="120" height="60" as="geometry" />
        </mxCell>
        <mxCell id="aL5J_LAOaLg8pD272hid-7" value="X_test_fgsm&lt;div&gt;y_test_fgsm&lt;/div&gt;" style="shape=dataStorage;whiteSpace=wrap;html=1;fixedSize=1;" vertex="1" parent="1">
          <mxGeometry x="40" y="260" width="160" height="80" as="geometry" />
        </mxCell>
        <mxCell id="aL5J_LAOaLg8pD272hid-8" value="dropout_classifier" style="rounded=0;whiteSpace=wrap;html=1;" vertex="1" parent="1">
          <mxGeometry x="280" y="560" width="120" height="60" as="geometry" />
        </mxCell>
        <mxCell id="aL5J_LAOaLg8pD272hid-10" value="X_train&lt;div&gt;y_train_base_predict&lt;/div&gt;&lt;div&gt;X_test_fgsm_surr&lt;/div&gt;&lt;div&gt;y_test_fgsm_surr&lt;/div&gt;" style="shape=dataStorage;whiteSpace=wrap;html=1;fixedSize=1;" vertex="1" parent="1">
          <mxGeometry x="40" y="370" width="160" height="80" as="geometry" />
        </mxCell>
        <mxCell id="aL5J_LAOaLg8pD272hid-12" value="ss_defence&lt;br&gt;(detect poison data)&lt;div&gt;???&lt;/div&gt;" style="rounded=0;whiteSpace=wrap;html=1;" vertex="1" parent="1">
          <mxGeometry x="280" y="470" width="120" height="60" as="geometry" />
        </mxCell>
        <mxCell id="aL5J_LAOaLg8pD272hid-13" value="surr_classifier" style="rounded=0;whiteSpace=wrap;html=1;" vertex="1" parent="1">
          <mxGeometry x="280" y="380" width="120" height="60" as="geometry" />
        </mxCell>
        <mxCell id="aL5J_LAOaLg8pD272hid-14" value="rs_classifier" style="rounded=0;whiteSpace=wrap;html=1;" vertex="1" parent="1">
          <mxGeometry x="280" y="650" width="120" height="60" as="geometry" />
        </mxCell>
        <mxCell id="aL5J_LAOaLg8pD272hid-15" value="adv_classifier" style="rounded=0;whiteSpace=wrap;html=1;" vertex="1" parent="1">
          <mxGeometry x="280" y="740" width="120" height="60" as="geometry" />
        </mxCell>
        <mxCell id="aL5J_LAOaLg8pD272hid-16" value="&lt;div&gt;X_test&lt;/div&gt;&lt;div&gt;y_test&lt;/div&gt;" style="shape=dataStorage;whiteSpace=wrap;html=1;fixedSize=1;" vertex="1" parent="1">
          <mxGeometry x="480" y="50" width="160" height="80" as="geometry" />
        </mxCell>
        <mxCell id="aL5J_LAOaLg8pD272hid-17" value="X_test_poisoned&lt;div&gt;y_test_poisoned&lt;/div&gt;" style="shape=dataStorage;whiteSpace=wrap;html=1;fixedSize=1;" vertex="1" parent="1">
          <mxGeometry x="480" y="150" width="160" height="80" as="geometry" />
        </mxCell>
        <mxCell id="aL5J_LAOaLg8pD272hid-18" value="base_classifier" style="rounded=0;whiteSpace=wrap;html=1;" vertex="1" parent="1">
          <mxGeometry x="280" y="270" width="120" height="60" as="geometry" />
        </mxCell>
      </root>
    </mxGraphModel>
  </diagram>
</mxfile>
